<svg width="5" height="7" viewBox="0 0 5 7" fill="none" xmlns="http://www.w3.org/2000/svg">
<path fill-rule="evenodd" clip-rule="evenodd" d="M0.97859 0.0269888C0.940234 0.0499443 0.890971 0.137487 0.647807 0.614768L0.362093 1.17557V1.81139V2.44722H1.07241H1.78272V1.81139V1.17557L1.49701 0.614768C1.25384 0.137487 1.20458 0.0499443 1.16622 0.0269888C1.10876 -0.0074103 1.03606 -0.0074103 0.97859 0.0269888ZM3.83378 0.0269888C3.79542 0.0499443 3.74616 0.137487 3.50299 0.614768L3.21728 1.17557V1.81139V2.44722H3.92759H4.63791V1.81139V1.17557L4.35219 0.614768C4.0431 0.00806657 4.03754 0 3.92759 0C3.90078 0 3.85857 0.0121409 3.83378 0.0269888ZM0.356703 2.81295C0.347204 2.84426 0.222816 3.47071 0.222816 3.48726C0.222816 3.49495 0.557987 3.49997 1.07241 3.49997C1.53968 3.49997 1.922 3.49504 1.922 3.48899C1.922 3.47342 1.79694 2.84186 1.78814 2.81295C1.78132 2.79057 1.73505 2.78902 1.07241 2.78902C0.409754 2.78902 0.3635 2.79057 0.356703 2.81295ZM3.21187 2.81295C3.20363 2.8401 3.078 3.47583 3.078 3.49046C3.078 3.49569 3.46032 3.49997 3.92759 3.49997C4.44201 3.49997 4.77718 3.49495 4.77718 3.48726C4.77718 3.47071 4.6528 2.84426 4.6433 2.81295C4.6365 2.79057 4.59025 2.78902 3.92759 2.78902C3.26495 2.78902 3.21868 2.79057 3.21187 2.81295ZM0.181033 4.89453V5.94729H1.07241H1.96378V4.89453V3.84178H1.07241H0.181033V4.89453ZM3.03622 4.89453V5.94729H3.92759H4.81897V4.89453V3.84178H3.92759H3.03622V4.89453ZM0.087703 6.32956C0.0103902 6.37583 -2.77999e-05 6.41359 5.55775e-08 6.6473C1.39833e-05 6.88711 0.0143038 6.93532 0.0974663 6.97609C0.142411 6.99813 0.218498 7 1.07241 7C1.92632 7 2.0024 6.99813 2.04735 6.97609C2.12991 6.9356 2.1448 6.88648 2.14481 6.65438C2.14484 6.42432 2.13147 6.37405 2.05863 6.33046C2.01359 6.3035 1.99083 6.30286 1.07241 6.30286C0.164501 6.30286 0.130754 6.30377 0.087703 6.32956ZM2.94137 6.33046C2.86853 6.37405 2.85516 6.42432 2.85519 6.65438C2.8552 6.88648 2.87009 6.9356 2.95265 6.97609C2.9976 6.99813 3.07368 7 3.92759 7C4.7815 7 4.85759 6.99813 4.90253 6.97609C4.9857 6.93532 4.99999 6.88711 5 6.6473C5.00003 6.41359 4.98961 6.37583 4.9123 6.32956C4.86925 6.30377 4.8355 6.30286 3.92759 6.30286C3.00917 6.30286 2.98641 6.3035 2.94137 6.33046Z" fill="white" fill-opacity="0.5"/>
</svg>
