<svg width="18" height="19" viewBox="0 0 18 19" fill="none" xmlns="http://www.w3.org/2000/svg">
<path d="M14.0111 10.6043L14.011 7.77297L16.7843 10.4761C16.9234 10.6118 17.1057 10.6795 17.2881 10.6795C17.4703 10.6795 17.6527 10.6118 17.7918 10.4761C18.07 10.205 18.07 9.76533 17.7918 9.49426L14.0109 5.80904L14.0109 5.39068L14.0107 2.0691C14.0107 0.92818 12.988 0 11.7311 0L6.26888 0C5.01202 0 3.98942 0.92818 3.98947 2.0691L3.98962 5.39068L3.98964 5.80904L0.209065 9.49426C-0.0691166 9.76542 -0.0690972 10.2051 0.209108 10.4761C0.348259 10.6117 0.530621 10.6795 0.712886 10.6795C0.895151 10.6795 1.07751 10.6118 1.21665 10.4761L3.98972 7.77297L3.98985 10.6044L0.209277 14.2897C-0.0689046 14.5608 -0.0688852 15.0005 0.209415 15.2716C0.348471 15.4073 0.530833 15.475 0.713098 15.475C0.895363 15.475 1.07772 15.4073 1.21686 15.2716L3.98994 12.5684L3.99004 14.881L3.99013 16.9309C3.99018 18.0718 5.01286 19 6.26972 19H11.732C12.9888 19 14.0114 18.0718 14.0114 16.9309L14.0113 14.8809L14.0112 12.5683L16.7845 15.2715C16.9236 15.4072 17.1059 15.4749 17.2883 15.4749C17.4705 15.4749 17.6529 15.4072 17.7919 15.2715C18.0702 15.0004 18.0702 14.5608 17.792 14.2896L14.0111 10.6043ZM12.5864 10.8922L12.5866 14.1865H5.41469L5.41455 10.8922C5.41455 10.892 5.41455 10.8919 5.41455 10.8917L5.41434 6.09714C5.41434 6.09686 5.41434 6.09649 5.41434 6.09621L5.41434 6.08501H12.5862L12.5862 6.09621C12.5862 6.09649 12.5862 6.09686 12.5862 6.09714L12.5864 10.8917C12.5864 10.8918 12.5864 10.892 12.5864 10.8922ZM6.26894 1.38866H11.7312C12.1946 1.38866 12.586 1.70027 12.586 2.0691L12.5861 4.69635H5.41427L5.41416 2.0691C5.41414 1.70027 5.80554 1.38866 6.26894 1.38866ZM11.7319 17.6112H6.26966C5.80625 17.6112 5.41483 17.2995 5.41481 16.9307L5.41475 15.5752H12.5866L12.5867 16.9308C12.5867 17.2996 12.1953 17.6112 11.7319 17.6112Z" fill="white"/>
</svg>
