<svg width="22" height="16" viewBox="0 0 22 16" fill="none" xmlns="http://www.w3.org/2000/svg">
<path d="M12.3317 8.64458H10.7964L11.6191 6.99922C11.7783 6.68082 11.6492 6.29367 11.3309 6.13447C11.0125 5.97527 10.6253 6.10435 10.4661 6.42271L9.17707 9.00084C8.9633 9.42838 9.27448 9.93365 9.75353 9.93365H11.2888L10.4661 11.579C10.3069 11.8974 10.436 12.2846 10.7543 12.4438C11.0728 12.603 11.46 12.4738 11.6191 12.1555L12.9081 9.57739C13.1219 9.14985 12.8107 8.64458 12.3317 8.64458Z" fill="white"/>
<path d="M18.7773 4.77734C18.4214 4.77734 18.1328 5.06592 18.1328 5.42188V6.06641H16.8438V5.42188C16.8438 5.06592 16.5552 4.77734 16.1992 4.77734H15.1771L14.0768 3.67704C13.9559 3.55617 13.7921 3.48828 13.6211 3.48828H12.9766V2.19922H13.6211C13.977 2.19922 14.2656 1.91064 14.2656 1.55469C14.2656 1.19873 13.977 0.910156 13.6211 0.910156H7.08984C6.73389 0.910156 6.44531 1.19873 6.44531 1.55469C6.44531 1.91064 6.73389 2.19922 7.08984 2.19922H7.73438V3.48828H7.08984C6.91887 3.48828 6.75499 3.55617 6.63412 3.67704L5.53382 4.77734H3.22266C2.8667 4.77734 2.57812 5.06592 2.57812 5.42188V8H1.28906V5.42188C1.28906 5.06592 1.00048 4.77734 0.644531 4.77734C0.288578 4.77734 0 5.06592 0 5.42188V11.8672C0 12.2231 0.288578 12.5117 0.644531 12.5117C1.00048 12.5117 1.28906 12.2231 1.28906 11.8672V9.28906H2.57812V11.8672C2.57812 12.2231 2.8667 12.5117 3.22266 12.5117H5.53382L7.92318 14.9011C8.04405 15.022 8.20793 15.0898 8.37891 15.0898H14.9102C15.1543 15.0898 15.3774 14.9519 15.4867 14.7335L16.5976 12.5117H18.1328V13.1562C18.1328 13.5122 18.4214 13.8008 18.7773 13.8008C20.5543 13.8008 22 12.3551 22 10.5781V8C22 6.22303 20.5543 4.77734 18.7773 4.77734ZM5.15625 11.2227H3.86719V6.06641H5.15625V11.2227ZM9.02344 2.19922H11.6875V3.48828H9.02344V2.19922ZM15.5547 11.715L14.5118 13.8008H8.64587L6.44531 11.6002V5.68884L7.35681 4.77734C7.61896 4.77734 13.123 4.77734 13.3541 4.77734L14.4544 5.87764C14.5753 5.99852 14.7392 6.06641 14.9102 6.06641H15.5547C15.5547 6.32993 15.5547 11.5053 15.5547 11.715ZM18.1328 11.2227H16.8438V7.35547H18.1328V11.2227ZM20.7109 10.5781C20.7109 11.4184 20.1722 12.1353 19.4219 12.4013C19.4219 11.9487 19.4219 6.34751 19.4219 6.17688C20.1722 6.4429 20.7109 7.1597 20.7109 8.00004V10.5781Z" fill="white"/>
</svg>
