<svg width="14" height="16" viewBox="0 0 14 16" fill="none" xmlns="http://www.w3.org/2000/svg">
<path d="M13.3807 3.76L13.3934 3.74667L10.2328 0.444458L9.33337 1.38667L11.1237 3.26221C10.3261 3.58221 9.75759 4.38667 9.75759 5.33333C9.75759 6.56 10.7079 7.55554 11.8788 7.55554C12.18 7.55554 12.4685 7.48887 12.7273 7.36888V13.7778C12.7273 14.2667 12.3455 14.6667 11.8788 14.6667C11.4122 14.6667 11.0304 14.2667 11.0304 13.7778V9.77779C11.0304 8.79558 10.271 8 9.33337 8H8.4849V1.77779C8.48486 0.795542 7.72548 0 6.78791 0H1.69699C0.759383 0 0 0.795542 0 1.77779V16H8.48486V9.33333H9.75759V13.7778C9.75759 15.0045 10.7079 16 11.8788 16C13.0497 16 14 15.0045 14 13.7778V5.33333C14 4.72 13.7625 4.16446 13.3807 3.76ZM6.78791 6.22221H1.69699V1.77779H6.78791V6.22221ZM11.8788 6.22221C11.4122 6.22221 11.0304 5.82221 11.0304 5.33333C11.0304 4.84446 11.4122 4.44446 11.8788 4.44446C12.3455 4.44446 12.7273 4.84446 12.7273 5.33333C12.7273 5.82221 12.3455 6.22221 11.8788 6.22221Z" fill="white" fill-opacity="0.5"/>
</svg>
