				<svg width="21" height="21" viewBox="0 0 21 21" fill="none" xmlns="http://www.w3.org/2000/svg">
					<path d="M10.4814 0.222687C8.44788 0.222687 6.46002 0.825697 4.7692 1.95546C3.07839 3.08523 1.76056 4.69101 0.982359 6.56974C0.204162 8.44848 0.000550167 10.5158 0.397271 12.5102C0.793993 14.5047 1.77323 16.3367 3.21115 17.7746C4.64907 19.2126 6.48109 20.1918 8.47554 20.5885C10.47 20.9852 12.5373 20.7816 14.416 20.0034C16.2948 19.2252 17.9005 17.9074 19.0303 16.2166C20.1601 14.5258 20.7631 12.5379 20.7631 10.5044C20.7631 9.15417 20.4971 7.81718 19.9804 6.56974C19.4637 5.32231 18.7064 4.18887 17.7517 3.23412C16.7969 2.27938 15.6635 1.52204 14.416 1.00533C13.1686 0.488631 11.8316 0.222687 10.4814 0.222687V0.222687ZM10.4814 18.7297C8.85458 18.7297 7.26429 18.2473 5.91164 17.3435C4.55899 16.4397 3.50473 15.1551 2.88217 13.6521C2.25961 12.1491 2.09672 10.4953 2.4141 8.89969C2.73147 7.30413 3.51486 5.83851 4.6652 4.68817C5.81554 3.53784 7.28115 2.75445 8.87672 2.43707C10.4723 2.1197 12.1261 2.28259 13.6291 2.90514C15.1321 3.5277 16.4167 4.58196 17.3205 5.93462C18.2243 7.28727 18.7068 8.87756 18.7068 10.5044C18.7068 12.6859 17.8402 14.778 16.2976 16.3206C14.7551 17.8631 12.6629 18.7297 10.4814 18.7297V18.7297Z" fill="#028AED"/>
					<path d="M10.4813 7.41986C11.0491 7.41986 11.5095 6.95954 11.5095 6.39169C11.5095 5.82385 11.0491 5.36353 10.4813 5.36353C9.91345 5.36353 9.45312 5.82385 9.45312 6.39169C9.45312 6.95954 9.91345 7.41986 10.4813 7.41986Z" fill="#028AED"/>
					<path d="M10.4813 8.44804C10.2086 8.44804 9.94709 8.55637 9.75427 8.74919C9.56145 8.94201 9.45312 9.20353 9.45312 9.47621V14.6171C9.45312 14.8897 9.56145 15.1513 9.75427 15.3441C9.94709 15.5369 10.2086 15.6452 10.4813 15.6452C10.754 15.6452 11.0155 15.5369 11.2083 15.3441C11.4011 15.1513 11.5095 14.8897 11.5095 14.6171V9.47621C11.5095 9.20353 11.4011 8.94201 11.2083 8.74919C11.0155 8.55637 10.754 8.44804 10.4813 8.44804Z" fill="#028AED"/>
				</svg>