<svg width="22" height="18" viewBox="0 0 22 18" fill="none" xmlns="http://www.w3.org/2000/svg">
<path d="M14.0938 12.3042H22V14.023H13.8232C13.9225 13.4949 14.0159 12.9187 14.0938 12.3042ZM14.3086 8.99564C14.3086 9.28584 14.3032 9.57236 14.2935 9.85501H22V8.13626H14.2935C14.3032 8.41875 14.3086 8.70543 14.3086 8.99564ZM13.7987 3.83939C13.9001 4.36542 13.9962 4.9418 14.0771 5.55814H22V3.83939H13.7987ZM11.3495 16.8015C11.4001 16.6583 12.5898 13.245 12.5898 8.99564C12.5898 4.74626 11.4001 1.33276 11.3495 1.18959L11.1333 0.578125L10.4861 0.618408C10.3813 0.624954 7.89182 0.789948 5.3669 1.84923C1.85588 3.32191 0 5.79312 0 8.99564C0 12.198 1.85588 14.6692 5.3669 16.142C7.89182 17.2012 10.3811 17.3663 10.4859 17.3729L11.1333 17.4131L11.3495 16.8015ZM10.8711 8.99564C10.8711 11.9049 10.2551 14.4423 9.92796 15.5848C9.07463 15.4697 7.52238 15.1882 5.99548 14.542C3.1577 13.3405 1.71875 11.4746 1.71875 8.99564C1.71875 6.51671 3.1577 4.65059 5.99548 3.44931C7.52289 2.80276 9.07581 2.52129 9.92863 2.40631C10.2561 3.54633 10.8711 6.07678 10.8711 8.99564Z" fill="white"/>
</svg>
