				<svg width="25" height="26" viewBox="0 0 25 26" fill="none" xmlns="http://www.w3.org/2000/svg">
					<path fill-rule="evenodd" clip-rule="evenodd" d="M11.3748 0.882712C8.99039 1.11617 6.78657 1.99461 4.85444 3.48176C3.9133 4.206 2.69134 5.56688 1.98536 6.6773C1.68037 7.15675 1.08664 8.3718 0.873958 8.95169C0.63618 9.60017 0.382733 10.5909 0.25802 11.3598C0.105399 12.3007 0.105399 14.0875 0.25802 15.0286C0.473837 16.3589 0.81523 17.4343 1.39958 18.6249C2.03793 19.9256 2.70196 20.8477 3.765 21.9103C4.82804 22.9726 5.75068 23.6361 7.05209 24.2742C8.24344 24.8583 9.31932 25.1993 10.6506 25.415C11.592 25.5678 13.3798 25.5678 14.3214 25.415C15.6524 25.1993 16.7285 24.8583 17.9199 24.2742C19.2213 23.6361 20.1439 22.9726 21.207 21.9103C22.27 20.8477 22.9338 19.9256 23.5724 18.6249C23.9964 17.761 24.2096 17.1947 24.4381 16.3264C24.7423 15.17 24.8195 14.5361 24.8195 13.1942C24.8195 11.8521 24.7423 11.2182 24.4381 10.0619C24.2096 9.19376 23.9964 8.62744 23.5724 7.76329C22.9338 6.46262 22.27 5.54073 21.207 4.47818C20.1439 3.41563 19.2213 2.75209 17.9199 2.11412C16.7298 1.53065 15.6324 1.18255 14.3456 0.98023C13.6356 0.868621 12.0502 0.81658 11.3748 0.882712ZM13.6349 2.81871C15.9902 3.07806 18.1464 4.12161 19.855 5.82943C21.8599 7.83288 22.919 10.3789 22.919 13.1942C22.919 16.0095 21.8599 18.5553 19.855 20.559C17.8503 22.5627 15.3028 23.6213 12.486 23.6213C9.66898 23.6213 7.12167 22.5627 5.117 20.559C3.11207 18.5553 2.05298 16.0095 2.05298 13.1942C2.05298 10.3789 3.11207 7.83288 5.117 5.82943C6.80212 4.14505 8.98076 3.08127 11.2783 2.82069C11.8101 2.76048 13.0955 2.75925 13.6349 2.81871ZM17.0821 8.76514C16.9412 8.84138 16.0018 9.84224 13.9288 12.125L10.9763 15.3763L9.44887 13.8548C8.08922 12.5003 7.89773 12.3269 7.70576 12.2763C7.26356 12.1596 6.8268 12.358 6.62198 12.7686C6.47319 13.0671 6.46505 13.2887 6.59262 13.5698C6.71255 13.8338 10.2661 17.4624 10.5622 17.6233C10.7999 17.7524 11.0997 17.764 11.3726 17.6549C11.5295 17.592 12.1938 16.8865 14.9304 13.8773C17.2127 11.3675 18.3261 10.1085 18.391 9.9639C18.7426 9.18216 17.8399 8.35527 17.0821 8.76514Z" fill="#3BD738"/>
				</svg>