				<svg width="24" height="21" viewBox="0 0 24 21" fill="none" xmlns="http://www.w3.org/2000/svg">
					<path d="M11.9991 0C12.6648 0 13.2789 0.351562 13.6164 0.928125L23.7422 18.1781C24.0844 18.7594 24.0844 19.4766 23.7515 20.0578C23.4187 20.6391 22.7952 21 22.1249 21H1.8734C1.20304 21 0.579561 20.6391 0.246725 20.0578C-0.0861113 19.4766 -0.0814235 18.7547 0.256101 18.1781L10.3818 0.928125C10.7193 0.351562 11.3335 0 11.9991 0ZM11.9991 6C11.3756 6 10.874 6.50156 10.874 7.125V12.375C10.874 12.9984 11.3756 13.5 11.9991 13.5C12.6226 13.5 13.1242 12.9984 13.1242 12.375V7.125C13.1242 6.50156 12.6226 6 11.9991 6ZM13.4992 16.5C13.4992 15.6703 12.8289 15 11.9991 15C11.1694 15 10.499 15.6703 10.499 16.5C10.499 17.3297 11.1694 18 11.9991 18C12.8289 18 13.4992 17.3297 13.4992 16.5Z" fill="#FFB546"/>
				</svg>